<svg width="20" height="20" viewBox="0 0 20 20" fill="none" xmlns="http://www.w3.org/2000/svg">
<path d="M16.2159 6.6666L16.8742 5.20827L18.3326 4.54993C18.6576 4.39993 18.6576 3.9416 18.3326 3.7916L16.8742 3.13327L16.2159 1.6666C16.0659 1.3416 15.6076 1.3416 15.4576 1.6666L14.7992 3.12493L13.3326 3.78327C13.0076 3.93327 13.0076 4.3916 13.3326 4.5416L14.7909 5.19993L15.4492 6.6666C15.5992 6.9916 16.0659 6.9916 16.2159 6.6666ZM9.58255 7.9166L8.25755 4.99993C7.96589 4.34993 7.03255 4.34993 6.74089 4.99993L5.41589 7.9166L2.49922 9.2416C1.84922 9.5416 1.84922 10.4666 2.49922 10.7583L5.41589 12.0833L6.74089 14.9999C7.04089 15.6499 7.96589 15.6499 8.25755 14.9999L9.58255 12.0833L12.4992 10.7583C13.1492 10.4583 13.1492 9.53327 12.4992 9.2416L9.58255 7.9166ZM15.4492 13.3333L14.7909 14.7916L13.3326 15.4499C13.0076 15.5999 13.0076 16.0583 13.3326 16.2083L14.7909 16.8666L15.4492 18.3333C15.5992 18.6583 16.0576 18.6583 16.2076 18.3333L16.8659 16.8749L18.3326 16.2166C18.6576 16.0666 18.6576 15.6083 18.3326 15.4583L16.8742 14.7999L16.2159 13.3333C16.0659 13.0083 15.5992 13.0083 15.4492 13.3333Z" fill="#F6C24C"/>
</svg>
