<?xml version="1.0" encoding="UTF-8"?>
<svg width="21px" height="29px" viewBox="0 0 21 29" version="1.1" xmlns="http://www.w3.org/2000/svg" xmlns:xlink="http://www.w3.org/1999/xlink">
    <!-- Generator: Sketch 63.1 (92452) - https://sketch.com -->
    <title>Mask</title>
    <desc>Created with Sketch.</desc>
    <defs>
        <path d="M15.5232076,1.77201254 L1.65556264,14.5487476 C1.29856598,14.8776609 1.27579986,15.4337007 1.60471307,15.7906973 C1.77112509,15.971318 2.00551791,16.0740741 2.25111269,16.0740741 L7.66877735,16.0740741 C8.15419522,16.0740741 8.54770416,16.467583 8.54770416,16.9530009 C8.54770416,17.0090686 8.54233925,17.0650077 8.53168278,17.1200535 L6.329518,28.4952742 C6.23725741,28.9718437 6.54880134,29.4329716 7.02537085,29.5252322 C7.29089477,29.5766358 7.5652994,29.5029344 7.76933704,29.3254127 L21.22766,17.6160869 C21.5938723,17.2974663 21.632453,16.7422995 21.3138324,16.3760873 C21.1469055,16.1842269 20.9050592,16.0740741 20.6507464,16.0740741 L15.6079777,16.0740741 C15.1225599,16.0740741 14.7290509,15.6805651 14.7290509,15.1951473 C14.7290509,15.1430027 14.7336913,15.0909615 14.7429172,15.0396396 L16.9838181,2.57391982 C17.0697026,2.09616009 16.752025,1.63923615 16.2742653,1.55335164 C16.0034883,1.5046754 15.7255404,1.58559639 15.5232076,1.77201254 Z" id="path-1"></path>
    </defs>
    <g id="Website" stroke="none" stroke-width="1" fill="none" fill-rule="evenodd">
        <g id="Home" transform="translate(-148.000000, -63.000000)">
            <g id="Header">
                <g id="Group" transform="translate(120.000000, 40.000000)">
                    <g id="ico" transform="translate(27.000000, 22.000000)">
                        <mask id="mask-2" fill="white">
                            <use xlink:href="#path-1"></use>
                        </mask>
                        <use id="Mask" fill="#FFFFFF" xlink:href="#path-1"></use>
                    </g>
                </g>
            </g>
        </g>
    </g>
</svg>