<?xml version="1.0" encoding="UTF-8"?>
<svg width="279px" height="45px" viewBox="0 0 279 45" version="1.1" xmlns="http://www.w3.org/2000/svg" xmlns:xlink="http://www.w3.org/1999/xlink">
    <!-- Generator: Sketch 63.1 (92452) - https://sketch.com -->
    <title>dark copy</title>
    <desc>Created with Sketch.</desc>
    <g id="twodots" stroke="none" stroke-width="1" fill="none" fill-rule="evenodd">
        <g id="logo" transform="translate(-160.000000, -277.000000)">
            <g id="dark-copy" transform="translate(160.000000, 277.000000)">
                <g id="Text" transform="translate(50.000000, 0.000000)" fill="#111111">
                    <g id="dots" transform="translate(114.340000, 0.000000)" fill-rule="nonzero">
                        <g id="s" transform="translate(89.010000, 12.600000)">
                            <path d="M13.38,32.4 C20.0196172,32.4 24.9,28.4515654 24.9,22.7030303 C24.9,16.6062615 18.3545455,15.3097606 13.38,14.9454545 C7.78995215,13.7186004 4.74688995,12.7167587 4.74,9.12727273 C4.74688995,5.93959484 8.13444976,3.46445672 12.42,3.30909091 C17.4358852,3.46445672 21.1105263,6.293186 21.06,10.0969697 L23.94,10.0969697 C24.2684211,4.58416206 19.2157895,0.4 12.42,0.4 C6.29712919,0.4 1.64641148,4.17163904 1.86,9.12727273 C1.64641148,15.545488 6.8138756,16.6651934 12.42,17.8545455 C16.6894737,18.079558 21.7995215,19.0224678 22.02,23.6727273 C21.7995215,26.7425414 18.2397129,29.3944751 13.38,29.4909091 C7.90478469,29.3944751 4.00047847,26.1532228 3.78,21.7333333 L0.9,21.7333333 C0.9,27.8622468 6.06746411,32.4 13.38,32.4 Z" id="twodots"></path>
                        </g>
                        <g id="t" transform="translate(69.340000, 4.900000)">
                            <path d="M13.0839766,40.0828935 C14.1839045,40.020374 15.9670175,39.7758487 17.16,39.356033 L17.16,36.8243234 C15.9670175,37.1841655 14.4161404,37.4240602 13.282807,37.4240602 C10.4196491,37.3640866 8.57052632,35.3249814 8.57052632,32.2663236 L8.57052632,11.8752716 L16.6231579,11.8752716 L16.6231579,9.05650852 L8.57052632,9.05650852 L8.56,0.1 L5.46,0.1 L5.40912281,9.05650852 L0.16,9.05650852 L0.16,11.8752716 L5.28982456,11.8752716 L5.28982456,32.3262972 C5.28982456,37.1841655 8.16,40.3627707 13.0839766,40.0828935 Z" id="Path"></path>
                        </g>
                        <g id="o" transform="translate(35.670000, 13.000000)">
                            <path d="M16,-2.84217094e-14 C25.2981132,-2.84217094e-14 32,6.71823204 32,16 C32,25.3406998 25.2981132,32 16,32 C6.64150943,32 8.52651283e-14,25.3406998 8.52651283e-14,16 C8.52651283e-14,6.71823204 6.64150943,-2.84217094e-14 16,-2.84217094e-14 Z M17,3 C8.44761905,3 3,8.43636364 3,16 C3,23.5045455 8.44761905,29 17,29 C23.552381,29 29,23.5045455 29,16 C29,8.43636364 23.552381,3 17,3 Z" id="Combined-Shape"></path>
                        </g>
                        <g id="d" transform="translate(-0.000000, 0.000000)">
                            <path d="M32.44,2.87059265e-12 L32.44,45 L29.44,45 L29.44,37 C26.7537996,42.0119522 22.0354631,45 16.44,45 C7.09406427,45 0.44,38.187251 0.44,29 C0.44,19.4223108 7.02812645,13 16.44,13 C22.44,13 26.6933081,15.4780876 29.44,20 L29.44,20 L29.44,2.87059265e-12 L32.44,2.87059265e-12 Z M16.44,16.5 C8.67809524,16.5 3.44,21.7873563 3.44,29 C3.44,36.2701149 8.73761905,41.5 16.44,41.5 C23.2019048,41.5 28.44,36.2701149 28.44,29 C28.44,21.7873563 23.2019048,16.5 16.44,16.5 Z" id="Combined-Shape"></path>
                        </g>
                    </g>
                    <g id="two" transform="translate(0.000000, 4.520000)">
                        <g id="w" transform="translate(23.600000, 8.740000)" fill-rule="nonzero">
                            <polygon id="Path" points="21.207949 31.74 26.3898725 11.3357031 31.5717961 31.74 43.0202317 31.74 52.42 0.74 43.3215064 0.74 37.0549942 22.8396094 30.6077173 0.74 22.1720278 0.74 16.1465353 22.6579688 9.81976825 0.74 0.42 0.74 9.75951333 31.74"></polygon>
                        </g>
                        <g id="o" transform="translate(77.200000, 7.480000)" fill-rule="nonzero">
                            <path d="M16.4710018,0 C26.2724077,0 33,6.69565217 33,16.5 C33,26.2445652 26.2724077,33 16.4710018,33 C6.72759227,33 2.76299618e-11,26.2445652 2.76299618e-11,16.5 C2.76299618e-11,6.69565217 6.72759227,0 16.4710018,0 Z M16.4681648,8 C11.5018727,8 8,11.5416667 8,16.5 C8,21.4583333 11.5018727,25 16.4681648,25 C21.4981273,25 25,21.4583333 25,16.5 C25,11.5416667 21.4981273,8 16.4681648,8 Z" id="Combined-Shape"></path>
                        </g>
                        <g id="t" transform="translate(0.000000, 0.480000)">
                            <path d="M14.55,0 L14.575,9 L20,9 L20,16 L14.591,16 L14.5918367,27.9940269 C14.5918367,30.4846373 16.0886603,32.1889239 18.5240514,32.289927 L18.755102,32.294674 C19.6122449,32.294674 20.9591837,32.1154803 22,31.8168243 L22,31.8168243 L22,39.0443006 C20,40 16.6530612,40 15,40 C8.44897959,40 5.40816327,35.4006969 5.40816327,28.889995 L5.40816327,28.889995 L5.408,16 L0,16 L0,9 L5.405,9 L5.4,0 L14.55,0 Z" id="Combined-Shape"></path>
                        </g>
                    </g>
                </g>
                <g id="monogram" transform="translate(0.000000, 3.000000)" stroke="#111111" stroke-width="2.22222222">
                    <circle id="dot" fill="#111111" cx="10" cy="10" r="8.88888889"></circle>
                    <circle id="dot" cx="30" cy="30" r="8.88888889"></circle>
                </g>
            </g>
        </g>
    </g>
</svg>